<svg xmlns="http://www.w3.org/2000/svg" viewBox="0 0 32 32">
  <rect width="32" height="32" rx="7" fill="#0d1117"/>
  <path fill="#ffffff" d="M16 5.5C10.2 5.5 5.5 10.2 5.5 16c0 4.64 3.01 8.58 7.18 9.97.53.1.72-.23.72-.51 0-.25-.01-.92-.01-1.81-2.92.63-3.54-1.41-3.54-1.41-.48-1.21-1.17-1.54-1.17-1.54-.96-.65.07-.64.07-.64 1.06.07 1.62 1.09 1.62 1.09.94 1.62 2.47 1.15 3.07.88.1-.68.37-1.15.67-1.42-2.33-.27-4.78-1.17-4.78-5.2 0-1.15.41-2.09 1.09-2.83-.11-.27-.47-1.34.1-2.79 0 0 .88-.28 2.9 1.08a10.1 10.1 0 0 1 5.28 0c2.01-1.36 2.9-1.08 2.9-1.08.57 1.45.21 2.52.1 2.79.68.74 1.09 1.68 1.09 2.83 0 4.04-2.46 4.93-4.8 5.19.38.33.71.97.71 1.96 0 1.42-.01 2.56-.01 2.91 0 .28.19.62.73.51A10.51 10.51 0 0 0 26.5 16c0-5.8-4.7-10.5-10.5-10.5z"/>
</svg>
